<?xml version="1.0" encoding="UTF-8" standalone="no"?>
<!DOCTYPE svg PUBLIC "-//W3C//DTD SVG 1.1//EN" "http://www.w3.org/Graphics/SVG/1.1/DTD/svg11.dtd">
<svg width="100%" height="100%" viewBox="0 0 97 94" version="1.1" xmlns="http://www.w3.org/2000/svg" xmlns:xlink="http://www.w3.org/1999/xlink" xml:space="preserve" xmlns:serif="http://www.serif.com/" style="fill-rule:evenodd;clip-rule:evenodd;stroke-linejoin:round;stroke-miterlimit:2;">
    <g transform="matrix(1,0,0,1,-4672.64,-6725.27)">
        <path d="M4677,6814C4680.14,6821.03 4696.78,6818.99 4700,6812C4705.83,6799.33 4711.9,6762.67 4712,6738L4735,6741C4731.39,6749.02 4728.01,6759.89 4726,6788C4715.83,6831.62 4766.91,6824.54 4766,6797C4736.43,6810.05 4734.69,6799.47 4745,6744C4762.71,6742.28 4770.51,6738.94 4769,6726C4693.11,6722.86 4669.36,6729.3 4673,6755C4713.69,6731.44 4672.17,6803.17 4677,6814Z"/>
    </g>
</svg>
